<svg xmlns="http://www.w3.org/2000/svg" viewBox="0 0 96 96" role="img" aria-labelledby="title desc">
  <title id="title">Haleema Quran Academy mark</title>
  <desc id="desc">A geometric open book and arch mark</desc>
  <rect width="96" height="96" rx="20" fill="#0d4f3c"/>
  <path d="M48 16c13.5 0 24.5 10.9 24.5 24.4V72H23.5V40.4C23.5 26.9 34.5 16 48 16Z" fill="#f6faf7" opacity=".96"/>
  <path d="M48 24c9 0 16.3 7.3 16.3 16.3v23.5H31.7V40.3C31.7 31.3 39 24 48 24Z" fill="#0d4f3c"/>
  <path d="M48 37c-6.6-4.2-13.2-5.1-19.8-2.8v28.5c6.6-2.3 13.2-1.4 19.8 2.8 6.6-4.2 13.2-5.1 19.8-2.8V34.2C61.2 31.9 54.6 32.8 48 37Z" fill="#ffffff"/>
  <path d="M48 37v28.5" fill="none" stroke="#d5aa48" stroke-width="3" stroke-linecap="round"/>
  <path d="M34 43.5c3.4-.5 6.5.1 9.5 1.8M52.5 45.3c3-1.7 6.1-2.3 9.5-1.8M34 52c3.4-.5 6.5.1 9.5 1.8M52.5 53.8c3-1.7 6.1-2.3 9.5-1.8" fill="none" stroke="#0d4f3c" stroke-width="2.4" stroke-linecap="round"/>
  <path d="m48 18 2.8 5.7 6.2.9-4.5 4.4 1.1 6.2L48 32.3l-5.6 2.9 1.1-6.2-4.5-4.4 6.2-.9L48 18Z" fill="#d5aa48"/>
</svg>
